# xmcd
#
# Track frame offsets:
#	150
#	16617
#	63262
#
# Disc length: 1161 seconds
# Revision: 0
# Processed by: cddbd v1.5.2PL0 Copyright (c) Steve Scherf et al.
# Submitted via: dBpowerAMP V12.0
#
DISCID=16048703
DTITLE=Michelle Gayle - Do You Know
DYEAR=1997
DGENRE=R&B
TTITLE0=Do You Know [Radio Edit]
TTITLE1=Do You Know [In The Mix]
TTITLE2=I'll Find You [Body Bump 12” Mix]
EXTD=
EXTT0=
EXTT1=
EXTT2=
PLAYORDER=
